<?xml version="1.0" encoding="UTF-8" standalone="no"?>
<svg
   width="22"
   height="21"
   version="1.1"
   viewBox="0 0 22 21"
   id="svg9"
   sodipodi:docname="Añadir extension.svg"
   xml:space="preserve"
   inkscape:version="1.4 (e7c3feb100, 2024-10-09)"
   xmlns:inkscape="http://www.inkscape.org/namespaces/inkscape"
   xmlns:sodipodi="http://sodipodi.sourceforge.net/DTD/sodipodi-0.dtd"
   xmlns="http://www.w3.org/2000/svg"
   xmlns:svg="http://www.w3.org/2000/svg"><defs
     id="defs9" /><sodipodi:namedview
     id="namedview9"
     pagecolor="#ffffff"
     bordercolor="#000000"
     borderopacity="0.25"
     inkscape:showpageshadow="2"
     inkscape:pageopacity="0.0"
     inkscape:pagecheckerboard="0"
     inkscape:deskcolor="#d1d1d1"
     inkscape:zoom="17.810252"
     inkscape:cx="6.6534712"
     inkscape:cy="13.756122"
     inkscape:window-width="1920"
     inkscape:window-height="1008"
     inkscape:window-x="0"
     inkscape:window-y="0"
     inkscape:window-maximized="1"
     inkscape:current-layer="svg9" /><g
     id="g6"
     transform="translate(0,-1)"><path
       d="M 2,7 C 1.446,7 1,7.446 1,8 v 12 c 0,0.554 0.446,1 1,1 h 10 c 0.554,0 1,-0.446 1,-1 v -2 h -2 v 0.25 C 11,19.2195 10.2195,20 9.25,20 H 5.75 C 4.7805,20 4,19.2195 4,18.25 V 18 C 3.16816,17.997886 2.5,17.32845 2.5,16.4961 V 11.5039 C 2.5,10.67023 3.17024,10 4.0039,10 h 0.99609 v 1 c 0,0.554 0.446,1 1,1 h 3 c 0.554,0 1,-0.446 1,-1 v -1 h 3 V 8 c 0,-0.554 -0.446,-1 -1,-1 h -10 z"
       fill="#ff9741"
       stroke-dasharray="5, 5"
       stroke-width="5"
       id="path1"
       style="fill:#e0e0e0;fill-opacity:1" /><path
       d="m 11,11 v 0.25 C 11,12.2195 10.2195,13 9.25,13 H 5.75 C 4.7805,13 4,12.2195 4,11.25 V 11.13477 C 3.70121,11.30732 3.5,11.6288 3.5,12 v 4 c 0,0.554 0.446,1 1,1 H 5 v 1 c 0,0.554 0.446,1 1,1 h 3 c 0.554,0 1,-0.446 1,-1 v -1 h 4 c 0.554,0 1,-0.446 1,-1 v -4 c 0,-0.554 -0.446,-1 -1,-1 z"
       fill="#ff9741"
       stroke-dasharray="5, 5"
       stroke-width="5"
       id="path2"
       style="fill:#e0e0e0;fill-opacity:1" /><path
       fill="#e0e0e0"
       d="M 16.428571,2 V 5.4285714 H 13 v 1.1428572 h 3.428571 V 10 h 1.142858 V 6.5714286 H 21 V 5.4285714 H 17.571429 V 2 Z"
       id="path1-6"
       style="stroke-width:0.571429" /></g></svg>
