<?xml version="1.0" encoding="UTF-8" standalone="no"?>
<svg
   width="16"
   height="16"
   version="1.1"
   id="svg2"
   sodipodi:docname="Godotwarp.svg"
   xml:space="preserve"
   inkscape:version="1.4 (e7c3feb100, 2024-10-09)"
   xmlns:inkscape="http://www.inkscape.org/namespaces/inkscape"
   xmlns:sodipodi="http://sodipodi.sourceforge.net/DTD/sodipodi-0.dtd"
   xmlns="http://www.w3.org/2000/svg"
   xmlns:svg="http://www.w3.org/2000/svg"><defs
     id="defs2" /><sodipodi:namedview
     id="namedview2"
     pagecolor="#ffffff"
     bordercolor="#000000"
     borderopacity="0.25"
     inkscape:showpageshadow="2"
     inkscape:pageopacity="0.0"
     inkscape:pagecheckerboard="0"
     inkscape:deskcolor="#d1d1d1"
     inkscape:zoom="25.1875"
     inkscape:cx="10.540943"
     inkscape:cy="6.4317618"
     inkscape:window-width="1920"
     inkscape:window-height="1008"
     inkscape:window-x="0"
     inkscape:window-y="0"
     inkscape:window-maximized="1"
     inkscape:current-layer="g2" /><g
     fill="#fff"
     transform="scale(.01563)"
     id="g2"><path
       id="path1"
       d="M 416.99156 76.975368 C 374.32489 86.308701 333.36424 100.29526 294.03091 118.96193 C 294.69758 152.96193 297.36168 187.05426 302.02835 221.05426 C 270.02835 239.05426 240.72317 260.36712 214.0565 285.03379 C 188.0565 267.03379 160.62444 251.38215 131.95777 238.04882 C 99.957774 270.71549 72.317658 306.68095 48.984325 346.01428 C 66.317658 374.01428 84.966411 400.98836 104.96641 426.98836 L 104.96641 673.03463 L 257.04275 687.03015 C 265.04275 687.69682 270.03795 692.359 272.03795 701.02567 L 276.03667 768.00424 L 407.99444 778.00104 L 415.99188 717.02055 C 417.32521 709.68722 422.32041 704.69202 430.98708 702.02535 L 593.06022 702.02535 C 601.72689 704.69202 606.72209 709.68722 608.05542 717.02055 L 616.05286 778.00104 L 748.01064 768.00424 L 752.00936 701.02567 C 754.00936 692.359 759.00456 687.69682 767.00456 687.03015 L 918.95593 673.03463 L 918.95593 426.98836 C 938.95593 400.98836 957.60469 374.01428 974.93802 346.01428 C 951.60469 306.68095 923.96457 270.71549 891.96457 238.04882 C 863.2979 251.38215 835.9908 267.03379 809.9908 285.03379 C 783.32413 260.36712 754.01895 239.05426 722.01895 221.05426 C 726.68562 187.05426 729.34972 152.96193 730.01639 118.96193 C 690.68306 100.29526 649.72241 86.308701 607.05574 76.975368 C 589.72241 105.64204 574.27883 135.28023 560.9455 165.9469 C 528.27883 161.28023 495.64352 161.28023 462.97685 165.9469 C 449.64352 135.28023 434.32489 105.64204 416.99156 76.975368 z M 607.68054 255.91811 C 627.37914 256.09934 650.53523 262.81291 667.41143 275.41187 C 693.34175 294.94836 706.45465 342.83147 700.40087 368.25716 L 700.65079 367.5074 C 699.61785 372.02698 698.64572 377.50915 697.90167 383.50228 C 698.80492 389.15289 699.65111 393.69194 699.65111 404.12068 C 699.65111 424.49309 687.96528 456.60976 665.91191 473.47349 C 643.85895 490.33805 623.0239 491.96757 608.55526 491.96757 C 607.0418 491.96757 605.379 491.97479 603.68182 491.84261 C 603.68676 493.03517 603.67723 494.11526 603.68182 495.34149 C 607.59411 497.66592 611.52051 500.27861 615.3031 503.46389 C 640.33018 524.5396 646.66807 555.06239 646.66807 573.31654 C 646.66807 603.87951 617.96978 645.61423 591.31078 657.03975 L 589.93622 657.53959 L 588.56166 658.16439 C 559.75157 669.24532 548.81501 665.03626 535.07877 663.78759 L 534.70389 663.78759 L 534.45397 663.66263 C 533.86455 663.60402 531.40331 663.62483 528.20597 663.66263 C 516.72267 665.06177 504.3758 666.00642 490.59301 666.78663 L 490.46805 666.78663 C 478.6971 667.44048 466.89331 667.56862 451.35557 664.03751 C 435.81865 660.50639 412.01364 651.9471 394.9986 626.42454 C 379.088 602.55844 379.73873 555.19005 393.49908 532.82949 L 393.87396 532.32965 L 394.12388 531.82981 C 398.35665 525.1791 403.19978 519.59426 408.24436 514.83525 C 389.82685 510.59542 374.33723 500.2885 365.88292 491.59269 C 354.95204 480.34965 350.65616 471.23418 347.26388 463.60165 C 340.47931 448.33658 338.36934 437.01434 336.01747 423.98932 L 335.76755 422.4898 L 335.51763 420.99028 C 334.30554 412.30278 333.10547 403.45754 331.89379 394.62372 C 332.54639 395.68036 332.97427 394.87344 332.76851 394.3738 L 331.76883 391.99956 L 331.26899 390.37508 C 331.03331 388.65587 330.7545 386.97675 330.51923 385.25172 L 330.01939 380.87812 C 330.10876 383.64648 330.21097 386.05649 330.39427 387.87588 C 330.17813 387.35297 329.81827 386.5123 328.64483 383.37732 C 327.85257 381.26156 326.97204 378.91853 325.77075 375.005 C 324.56947 371.09147 321.77203 369.05588 321.77203 349.51316 C 321.77203 335.78939 326.43027 313.13047 341.14083 295.40547 C 341.46797 295.01225 341.8034 294.54411 342.14052 294.15587 C 357.68075 276.26128 376.47271 269.91868 386.62628 267.53939 C 406.93342 262.77997 408.00745 264.60373 405.24532 265.04019 L 411.2434 264.04051 L 417.36644 264.04051 C 424.53218 264.04051 427.33683 264.50621 429.86244 264.91523 L 524.58213 264.91523 C 544.03549 264.03484 562.7591 262.33629 580.81414 260.04179 C 583.25704 259.33723 585.57227 258.85225 587.8119 258.29235 L 593.4351 256.79283 L 599.18326 256.29299 C 601.92793 256.03153 604.75173 255.89108 607.68054 255.91811 z M 607.93046 294.53075 C 606.12188 294.52161 604.28636 294.61606 602.55718 294.78067 L 599.6831 295.03059 L 596.93398 295.78035 C 594.34062 296.4288 591.77915 297.09354 589.0615 298.02963 C 568.54902 300.75102 547.34869 302.55188 525.33189 303.52787 L 426.8634 303.52787 C 426.72623 303.51578 426.76812 303.54988 426.61348 303.52787 C 423.9453 303.14712 422.09931 302.77811 416.99156 302.77811 L 413.99252 302.77811 L 410.99348 303.27795 C 401.74608 304.73779 391.46799 307.36147 381.00308 315.89891 C 370.53776 324.43636 362.88388 340.82708 362.88388 354.01172 C 362.88388 365.04235 365.14031 370.52833 367.38244 377.25428 L 367.75732 378.50388 L 368.25716 379.75348 C 368.32201 379.9106 368.33099 379.97207 368.38212 380.12836 C 368.3497 379.68234 368.28168 378.86624 368.25716 378.25396 L 368.50708 380.0034 C 370.14357 392.00379 371.86857 403.88679 373.50548 415.617 L 373.63044 416.36676 L 373.7554 417.11652 C 375.81463 428.52251 377.89796 437.90248 382.37764 447.98165 C 384.61727 453.02164 387.31411 458.49286 393.37412 464.72629 C 399.43417 470.95926 411.24934 478.34693 424.73908 478.34693 C 432.02536 478.34693 441.05349 477.85539 452.10533 471.22421 C 455.90497 468.94467 459.45119 465.47649 462.60197 461.47733 C 462.67637 464.90952 462.75338 468.23366 462.85189 471.72405 L 462.85189 471.84901 C 463.61215 496.68779 463.59121 515.72683 462.97685 528.45589 C 461.39523 528.83249 459.83951 529.21999 458.22837 529.70549 C 447.76138 532.86001 434.98981 539.33975 426.48852 552.69814 L 426.2386 552.94806 L 426.11364 553.19798 C 418.14649 566.14527 417.82092 591.49224 426.8634 605.05638 C 436.18689 619.04119 449.59151 624.14917 459.60293 626.42454 C 469.61434 628.69992 478.53839 628.82975 488.09381 628.29894 C 502.04328 627.50959 514.13505 626.42378 524.95701 625.04998 C 530.51868 624.87873 535.0361 625.00811 537.95286 625.2999 L 538.20278 625.2999 L 538.32774 625.2999 C 549.68135 626.33201 558.26912 628.27103 574.44118 622.05094 L 575.06598 621.80102 L 575.81574 621.5511 C 591.99985 614.61482 607.8055 591.71352 607.8055 573.4415 C 607.8055 561.79983 603.99054 544.70446 590.18614 533.07941 C 582.16496 526.32478 573.22104 523.21896 564.94422 522.08293 L 564.94422 520.83333 C 564.94422 493.95777 564.90213 472.81532 564.6943 457.35365 C 564.52346 444.66781 564.50653 437.44172 563.94454 430.23732 C 574.44187 446.84667 595.33228 453.35493 608.30534 453.35493 C 617.85037 453.35493 629.98788 452.17345 642.16951 442.85829 C 654.35155 433.5427 660.78855 416.19906 660.78855 404.24564 C 660.78855 397.24201 660.09143 393.1855 659.16407 387.00116 L 659.03911 386.50132 L 658.91415 386.00148 C 658.71379 384.86545 658.685 384.22092 658.66423 383.87716 C 659.60904 374.66508 660.98447 366.35501 662.66295 359.01012 L 662.53799 359.26004 C 666.2096 343.83868 659.14306 318.06118 644.41879 306.65187 C 634.17959 298.72795 620.3432 294.59434 607.93046 294.53075 z M 608.05542 333.14339 C 612.87225 333.08507 617.1067 334.53661 620.67638 337.39203 C 624.75237 340.38145 626.03377 344.67931 624.6751 350.38788 C 622.50015 359.90216 620.89005 370.23109 619.80166 381.37796 C 619.53139 384.36738 619.86192 388.25227 620.67638 392.87428 C 621.49268 398.31075 621.80102 402.07069 621.80102 404.24564 C 621.80102 411.31287 617.17447 414.86724 607.93046 414.86724 C 601.9498 414.86724 598.08708 413.02575 596.18422 409.49396 C 595.91212 403.51329 596.01491 395.45733 596.5591 385.12676 C 597.1033 372.8915 597.43382 364.71058 597.43382 360.6346 C 597.1599 360.6346 596.72659 360.30407 596.18422 359.75988 C 570.90107 360.84644 547.12396 362.45837 524.83205 364.63332 C 524.28968 368.16876 524.28968 372.58975 524.83205 377.75412 L 526.45653 392.37444 C 525.36814 400.80033 524.83205 413.27911 524.83205 429.86244 C 525.64835 436.92967 526.08165 467.27761 526.08165 520.83333 L 526.08165 550.57382 C 526.08165 555.19399 526.72235 558.5428 528.08101 560.44566 L 553.32294 560.44566 C 563.65351 559.087 568.81798 563.38302 568.81798 573.4415 C 568.81798 579.42216 566.02927 583.61541 560.3207 586.06246 C 556.78708 587.42112 550.54861 587.75164 541.5767 586.93718 C 536.14022 586.39298 529.67401 586.29203 522.33285 586.5623 C 512.27438 587.92279 500.00299 588.99496 485.59461 589.81126 C 470.91413 590.62572 461.98972 588.58049 458.72821 583.68822 C 456.55325 580.42487 456.55325 576.97511 458.72821 573.4415 C 462.53392 567.46083 472.42955 564.44438 488.46869 564.44438 C 496.89641 564.44438 501.08965 562.19176 501.08965 557.57158 C 501.08965 555.12453 500.98687 552.74877 500.71477 550.57382 C 500.71477 543.77686 500.81573 537.86891 501.08965 532.70453 C 501.90412 518.02223 501.90412 497.36435 501.08965 470.72437 C 500.00126 432.1194 500.43639 397.47543 502.33925 366.75764 L 501.08965 365.50804 C 492.66194 366.05223 476.96114 365.94945 453.85477 365.13316 C 452.76638 365.13316 444.48267 365.66925 428.98772 366.75764 C 432.79344 392.85343 434.94145 411.4679 435.48564 422.61476 L 434.73588 433.61124 C 434.46196 437.68906 431.0122 439.73429 424.48916 439.73429 C 419.32479 439.73429 415.02876 429.94327 411.49332 410.36868 C 409.86256 398.68127 408.12568 386.84319 406.49492 374.88004 C 406.49492 372.97718 405.64866 369.75516 403.7458 365.13316 C 402.11504 360.23906 401.2466 356.45877 401.2466 354.01172 C 401.2466 347.21658 406.41107 343.02151 416.74164 341.39075 C 417.55611 341.39075 418.96247 341.6185 420.86532 341.8906 C 422.76818 342.16269 424.04775 342.26548 424.86404 342.26548 L 526.08165 342.26548 C 551.09271 341.17708 575.17999 339.02907 598.55846 335.76755 C 600.19104 334.95126 602.66958 334.08465 605.9311 333.26835 C 606.64467 333.20056 607.3673 333.15173 608.05542 333.14339 z M 487.09413 525.83173 C 487.34312 525.78518 487.52564 525.85211 487.71893 525.83173 C 487.53063 525.83257 487.2816 525.82997 487.09413 525.83173 z M 603.80678 541.95158 L 603.80678 550.57382 C 603.80678 549.27194 604.40742 546.43291 603.80678 541.95158 z M 564.94422 547.8247 C 565.50038 550.1803 564.94422 551.02066 564.94422 550.57382 L 564.94422 547.8247 z M 104.96641 706.02407 L 104.96641 745.0116 C 104.96641 1021.0116 917.95593 1021.0116 918.95593 745.0116 L 918.95593 706.02407 L 784.9988 718.02023 L 780.0004 786.99816 C 778.66707 793.66483 774.00488 797.994 766.00488 799.994 L 604.0567 810.99048 C 596.0567 810.99048 590.72849 807.32733 588.06182 799.994 L 577.94006 735.0148 L 445.98229 735.0148 L 435.98548 799.994 C 433.31881 807.32733 427.9906 810.99048 419.9906 810.99048 L 258.04243 799.994 C 250.04243 797.994 245.38023 793.66483 244.0469 786.99816 L 239.0485 718.02023 L 104.96641 706.02407 z " /></g></svg>
